<svg xmlns="http://www.w3.org/2000/svg" viewBox="0 0 280 48" width="280" height="48">
  <defs>
    <linearGradient id="bg" x1="0" y1="0" x2="0" y2="1">
      <stop offset="0%" stop-color="#34495e"/>
      <stop offset="100%" stop-color="#2c3e50"/>
    </linearGradient>
  </defs>
  <!-- Background pill -->
  <rect width="280" height="48" rx="8" fill="url(#bg)"/>
  <!-- Compass/map icon -->
  <g transform="translate(24,24)">
    <!-- Outer circle -->
    <circle cx="0" cy="0" r="14" fill="none" stroke="#5dade2" stroke-width="1.5"/>
    <!-- North arrow -->
    <polygon points="0,-12 3,-4 0,-6 -3,-4" fill="#5dade2"/>
    <!-- South arrow -->
    <polygon points="0,12 3,4 0,6 -3,4" fill="rgba(93,173,226,0.4)"/>
    <!-- Cross hairs -->
    <line x1="-12" y1="0" x2="-5" y2="0" stroke="#5dade2" stroke-width="1"/>
    <line x1="5" y1="0" x2="12" y2="0" stroke="#5dade2" stroke-width="1"/>
    <!-- Center dot -->
    <circle cx="0" cy="0" r="2" fill="#5dade2"/>
  </g>
  <!-- App name -->
  <text x="48" y="30" font-family="Arial, Helvetica, sans-serif" font-size="16" font-weight="bold" fill="#FFFFFF" letter-spacing="2">DUFOUR</text>
  <!-- Divider line -->
  <line x1="168" y1="8" x2="168" y2="40" stroke="rgba(255,255,255,0.3)" stroke-width="1"/>
  <!-- Swiss cross (small) -->
  <g transform="translate(186,24)">
    <rect x="-6" y="-6" width="12" height="12" rx="1" fill="#e74c3c"/>
    <rect x="-4" y="-1.5" width="8" height="3" fill="white"/>
    <rect x="-1.5" y="-4" width="3" height="8" fill="white"/>
  </g>
  <!-- Topographic lines decoration -->
  <g transform="translate(220,24)" opacity="0.5">
    <path d="M-15,8 Q-8,0 0,4 Q8,-6 15,-2" fill="none" stroke="#85c1e9" stroke-width="1"/>
    <path d="M-15,4 Q-8,-4 0,0 Q8,-10 15,-6" fill="none" stroke="#85c1e9" stroke-width="1"/>
    <path d="M-15,0 Q-8,-8 0,-4 Q8,-14 15,-10" fill="none" stroke="#85c1e9" stroke-width="1"/>
  </g>
</svg>
